<?xml version="1.0" encoding="utf-8"?>
<!-- Generator: Adobe Illustrator 28.2.0, SVG Export Plug-In . SVG Version: 6.00 Build 0)  -->
<svg version="1.1" id="Слой_1" xmlns="http://www.w3.org/2000/svg" xmlns:xlink="http://www.w3.org/1999/xlink" x="0px" y="0px"
	 viewBox="0 0 18 16" style="enable-background:new 0 0 18 16;" xml:space="preserve">
<style type="text/css">
	.st0{fill-rule:evenodd;clip-rule:evenodd;fill:#3A86FF;}
</style>
<path class="st0" d="M5.9,3.3c0.4-0.1,0.8,0.1,1,0.5C7.2,4.6,8,5.2,9,5.2s1.8-0.6,2.1-1.5c0.1-0.4,0.6-0.6,1-0.5s0.6,0.6,0.5,1
	C12,5.7,10.6,6.8,9,6.8s-3-1-3.5-2.5C5.3,3.9,5.5,3.4,5.9,3.3z M9.4,1.5H8.6c-1.6,0-2.7,0-3.5,0.1S4,1.9,3.7,2.1
	C3.5,2.3,3.2,2.6,3,3.4C2.8,4.1,2.6,5.2,2.3,6.8C1.8,9,1.5,10.6,1.5,11.7s0.1,1.6,0.4,1.9c0.3,0.3,0.7,0.6,1.8,0.7
	c1.1,0.2,2.7,0.2,5,0.2h0.7c2.3,0,3.8,0,5-0.2c1.1-0.2,1.5-0.4,1.8-0.7s0.4-0.8,0.4-1.9S16.3,9,15.8,6.8c-0.3-1.6-0.5-2.7-0.8-3.4
	c-0.2-0.7-0.5-1.1-0.7-1.3c-0.3-0.2-0.6-0.4-1.4-0.5C12.1,1.5,11,1.5,9.4,1.5z M2.8,0.9c-1.1,0.9-1.4,2.5-2,5.6
	c-0.8,4.4-1.2,6.6,0,8C1.9,16,4.2,16,8.6,16h0.7c4.5,0,6.7,0,7.9-1.4s0.8-3.6,0-8c-0.6-3.1-0.9-4.7-2-5.6c-1.1-1-2.7-1-5.8-1H8.6
	C5.5,0,3.9,0,2.8,0.9z"/>
</svg>
