<?xml version="1.0" encoding="utf-8"?>
<!-- Generator: Adobe Illustrator 28.2.0, SVG Export Plug-In . SVG Version: 6.00 Build 0)  -->
<svg version="1.1" id="Слой_1" xmlns="http://www.w3.org/2000/svg" xmlns:xlink="http://www.w3.org/1999/xlink" x="0px" y="0px"
	 viewBox="0 0 24 24" style="enable-background:new 0 0 24 24;" xml:space="preserve">
<style type="text/css">
	.st0{fill:none;stroke:#3A86FF;stroke-width:1.7;stroke-linecap:round;stroke-linejoin:round;}
</style>
<path class="st0" d="M18,18.7c-0.7-0.9-1.6-1.7-2.6-2.2s-2.2-0.8-3.3-0.8c-1.2,0-2.3,0.3-3.3,0.8s-1.9,1.3-2.6,2.2 M18,18.7
	c1.4-1.2,2.3-2.8,2.8-4.6c0.4-1.8,0.3-3.6-0.3-5.3c-0.6-1.7-1.8-3.2-3.3-4.2S13.8,3,12,3S8.4,3.6,6.9,4.6S4.2,7.1,3.6,8.8
	s-0.8,3.6-0.3,5.3c0.4,1.8,1.4,3.4,2.8,4.6 M18,18.7c-1.6,1.5-3.8,2.3-6,2.3s-4.3-0.8-6-2.3 M15,9.7c0,0.8-0.3,1.6-0.9,2.1
	s-1.3,0.9-2.1,0.9s-1.6-0.3-2.1-0.9C9.3,11.3,9,10.5,9,9.7C9,9,9.3,8.2,9.9,7.6C10.5,7,11.2,6.7,12,6.7s1.6,0.3,2.1,0.9S15,9,15,9.7
	z"/>
</svg>
